<svg xmlns="http://www.w3.org/2000/svg" width="48" height="48" fill="none" xmlns:v="https://vecta.io/nano"><path d="M27 40a2.49 2.49 0 0 1 1-1.989v-3.289a1.99 1.99 0 0 1-1-1.723c0-.738.405-1.376 1-1.723V28h-8v15.171a2 2 0 0 0 .586 1.414L22 46h3.639l1.653-1.401A2 2 0 0 0 28 43.073v-1.084A2.49 2.49 0 0 1 27 40z" fill="url(#A)"/><path d="M37 15c0-7.18-5.82-13-13-13S11 7.82 11 15a12.7 12.7 0 0 0 .051 1H11v8a4 4 0 0 0 4 4h18a4 4 0 0 0 4-4v-8h-.051A12.7 12.7 0 0 0 37 15zM24 7a4 4 0 1 1 0 8 4 4 0 1 1 0-8z" fill="url(#B)"/><defs><linearGradient id="A" x1="24" y1="27.973" x2="24" y2="46.018" gradientUnits="userSpaceOnUse"><stop stop-color="#e5a505"/><stop offset=".01" stop-color="#e9a804"/><stop offset=".06" stop-color="#f4b102"/><stop offset=".129" stop-color="#fbb600"/><stop offset=".323" stop-color="#fdb700"/></linearGradient><linearGradient id="B" x1="14.956" y1="4.953" x2="31.715" y2="29.317" gradientUnits="userSpaceOnUse"><stop stop-color="#fede00"/><stop offset="1" stop-color="#ffd000"/></linearGradient></defs></svg>