<svg xmlns="http://www.w3.org/2000/svg" width="48" height="48" fill="none" xmlns:v="https://vecta.io/nano"><path d="M5.393 4.016a1.44 1.44 0 0 0-.955.424 1.5 1.5 0 0 0 0 2.121l5.129 5.129a18.9 18.9 0 0 0-4.463 10.504A5.49 5.49 0 0 0 2.996 26.5a5.51 5.51 0 0 0 3.631 5.17A18.88 18.88 0 0 0 23.996 43c4.652 0 8.979-1.667 12.336-4.543l5.105 5.103a1.49 1.49 0 0 0 1.059.44 1.5 1.5 0 0 0 1.063-.44c.536-.536.557-1.363.113-1.951L6.387 4.326a1.53 1.53 0 0 0-.994-.311zM23.92 5c-.024 0-.046.007-.07.008a18.82 18.82 0 0 0-9.738 2.801L16.303 10c2.273-1.259 4.873-1.989 7.641-1.998 1.091.014 1.976.903 1.976 1.996 0 1.103-.897 2-2 2-.513 0-1-.194-1.375-.547-.601-.566-1.553-.539-2.121.064a1.5 1.5 0 0 0 .063 2.119C21.419 14.516 22.64 15 23.92 15c2.757 0 5-2.243 5-5 0-.444-.078-.867-.187-1.277 6.217 1.932 10.842 7.561 11.217 14.387l.047.822.717.402c.805.453 1.283 1.262 1.283 2.164a2.5 2.5 0 0 1-2.02 2.451l-.807.156-.303.766c-.251.635-.548 1.238-.869 1.824l2.201 2.201c.431-.711.826-1.452 1.168-2.229a5.51 5.51 0 0 0 3.629-5.17c0-1.688-.791-3.272-2.107-4.307A18.99 18.99 0 0 0 23.996 5c-.018 0-.035.003-.053.004-.009-.001-.015-.004-.024-.004zm-12.228 8.816L28.42 30.545A7.48 7.48 0 0 1 23.996 32c-2.118 0-4.149-.912-5.576-2.502a1.5 1.5 0 0 0-2.232 2.004A10.51 10.51 0 0 0 23.996 35c2.396 0 4.704-.84 6.555-2.326l3.65 3.65A15.91 15.91 0 0 1 23.996 40c-6.604 0-12.438-3.977-14.869-10.129l-.305-.764-.805-.158c-1.17-.228-2.021-1.257-2.021-2.449 0-.902.48-1.711 1.285-2.164l.717-.404.047-.82c.195-3.538 1.539-6.746 3.646-9.295zM16.996 21a2 2 0 1 0 0 4 2 2 0 1 0 0-4zm14 0a2 2 0 1 0 0 4 2 2 0 1 0 0-4z" fill="#ff5556"/></svg>