<svg xmlns="http://www.w3.org/2000/svg" width="48" height="48" fill="none" xmlns:v="https://vecta.io/nano"><path d="M5.474 3.984A1.5 1.5 0 0 0 4.43 6.561l5.273 5.273C9.258 12.623 9 13.53 9 14.5v2a1.5 1.5 0 0 0 1.5 1.5h.688l2.855 21.232A5.53 5.53 0 0 0 19.5 44h9a5.53 5.53 0 0 0 5.457-4.77l.371-2.771 7.102 7.101a1.5 1.5 0 0 0 2.534-.66 1.5 1.5 0 0 0-.413-1.461l-37-37a1.5 1.5 0 0 0-1.076-.455zM19.023 4c-2.277 0-4.247 1.379-5.271 3.396L18.353 12H22.5a1.5 1.5 0 0 0 0-3h-6.197c.487-1.178 1.519-2 2.721-2h9.953C30.644 7 32 8.57 32 10.5a1.5 1.5 0 0 0 1.5 1.5c1.378 0 2.5 1.121 2.5 2.5v.5h-.5-14.146l3 3h9.43l-1.117 8.313 2.668 2.668L36.812 18h.688a1.5 1.5 0 0 0 1.5-1.5v-2a5.51 5.51 0 0 0-4.127-5.326C34.304 6.224 31.876 4 28.976 4h-9.953zm-4.809 14h1.654L31.66 33.791l-.676 5.037A2.52 2.52 0 0 1 28.5 41h-9a2.52 2.52 0 0 1-2.484-2.17L14.215 18z" fill="#ff5556"/></svg>