<svg xmlns="http://www.w3.org/2000/svg" width="48" height="48" fill="none" xmlns:v="https://vecta.io/nano"><path d="M5.474 3.984A1.5 1.5 0 0 0 4.43 6.561l9.228 9.229-8.822 21.506c-.701 1.71-.326 3.584.98 4.891.872.872 1.995 1.328 3.154 1.328.578 0 1.165-.114 1.734-.348l21.508-8.822 9.217 9.217a1.5 1.5 0 0 0 2.534-.66 1.5 1.5 0 0 0-.413-1.461l-37-37a1.5 1.5 0 0 0-1.076-.455zM19.5 4a1.5 1.5 0 0 0-1.389.932l-1.984 4.84 3.834 3.836c1.502.167 2.939.543 4.291 1.09-.294.734-.831 1.332-1.516 1.686l2.17 2.17a6.27 6.27 0 0 0 2.023-2.465c4.059 2.598 6.906 6.929 7.463 11.951l3.836 3.834 4.84-1.984A1.5 1.5 0 0 0 44 28.5C44 14.99 33.01 4 19.5 4zm.996 3.021c11.063.508 19.974 9.419 20.482 20.482l-3.523 1.445a19.35 19.35 0 0 0-18.402-18.402l1.443-3.525zm-4.539 11.066l8.002 8.002c-.31-.055-.629-.09-.959-.09-1.542 0-2.888.632-3.746 1.598S18 29.792 18 31s.396 2.437 1.254 3.402c.482.542 1.12.973 1.857 1.252L9.566 40.391c-.862.351-1.463-.163-1.629-.328s-.68-.771-.328-1.629l.701-1.711C9.088 37.494 10.22 38 11.5 38c1.375 0 2.596-.57 3.371-1.441S16 34.583 16 33.5s-.354-2.187-1.129-3.059S12.875 29 11.5 29c-.007 0-.014.002-.021.002l4.479-10.914zM23 29c.792 0 1.195.243 1.504.59S25 30.458 25 31s-.188 1.063-.496 1.41S23.792 33 23 33s-1.195-.243-1.504-.59S21 31.542 21 31s.188-1.063.496-1.41S22.208 29 23 29zm4.91 1.041l2.002 2.002-2.309.947A5.31 5.31 0 0 0 28 31c0-.32-.033-.641-.09-.959zM11.5 32c.625 0 .904.18 1.129.434s.371.65.371 1.066-.146.813-.371 1.066S12.125 35 11.5 35s-.904-.18-1.129-.434S10 33.917 10 33.5s.146-.813.371-1.066S10.875 32 11.5 32z" fill="#ff5556"/></svg>