<svg xmlns="http://www.w3.org/2000/svg" width="48" height="48" fill="none" xmlns:v="https://vecta.io/nano"><path d="M25.631 3.006c-.244-.023-.491.013-.721.113-.16.07-3.94 1.711-6.16 5.051a15.94 15.94 0 0 0-1.479 2.748l2.33 2.328c.33-1.009.839-2.207 1.648-3.416.77-1.16 1.82-2.07 2.75-2.73v8.4a1.5 1.5 0 0 0 1.5 1.5c7.01 0 8.22 3.649 8.42 4.699.1.76.4.981 2.75 2.551 2.623 1.745 4.004 3.493 4.109 3.625.214.28.225.432.225.633s-.061.357-.26.67c-.797 1.195-1.524 2.191-2.252 2.959l2.129 2.131c.909-.96 1.729-2.089 2.498-3.248C43.899 30.381 45 29.25 45 28c0-1.16-.95-2.13-2.23-2.42-.67-.77-2.15-2.31-4.44-3.83l-1.58-1.08c-.547-2.053-2.043-4.107-4.75-5.381V6.5A1.5 1.5 0 0 0 30.455 5a1.5 1.5 0 0 0-.512.107S28.648 5.656 27 7V4.5c0-.5-.25-.97-.67-1.25a1.54 1.54 0 0 0-.699-.244zm-20.156.979A1.5 1.5 0 0 0 4.43 6.561l9.273 9.273c-2.765 1.33-6.747 3.903-10.402 8.766a1.5 1.5 0 0 0 .299 2.1 1.52 1.52 0 0 0 .9.301 1.49 1.49 0 0 0 1.199-.6c3.766-5.023 7.948-7.324 10.279-8.291l14.895 14.895C29.217 32.499 27.396 32 25.5 32c-4.14 0-7.5 3.36-7.5 7.5v4a1.5 1.5 0 1 0 3 0v-4a4.51 4.51 0 0 1 4.5-4.5c1.67 0 3.42.541 5.1 1.06 1.506.464 2.936.898 4.258.928l6.572 6.572a1.5 1.5 0 0 0 2.534-.66 1.5 1.5 0 0 0-.413-1.461l-37-37a1.5 1.5 0 0 0-1.076-.455zM29 9.344v4.982c-.626-.122-1.29-.213-2-.266v-2.863c.73-.849 1.379-1.361 2-1.854zM30 21a1.99 1.99 0 0 0-1.699.949l2.75 2.75A1.99 1.99 0 0 0 32 23c0-1.1-.9-2-2-2z" fill="#ff5556"/></svg>