<svg width="88" height="25" viewBox="0 0 88 25" fill="none" xmlns="http://www.w3.org/2000/svg">
<path d="M70.7719 22.1426L69.723 20.9414L73.9769 16.752L73.9828 16.7402L73.016 16.6758V15.4688H77.0004V16.6758L76.1976 16.8457L70.7719 22.1426ZM68.3636 24V22.7988L69.2484 22.6113V16.8633L68.3636 16.6758V15.4688H72.1136V16.6758L71.3051 16.8633V22.6113L72.1136 22.7988V24H68.3636ZM73.1976 24V22.7988L74.0531 22.7344H74.0648L72.014 19.9277L73.4496 18.6562L76.4379 22.6523L77.3109 22.7988V24H73.1976Z" fill="black"/>
<path d="M58.2316 24V22.7988L59.1163 22.6113V16.8633L58.2316 16.6758V15.4629H62.4269C63.1027 15.4629 63.6886 15.5703 64.1847 15.7852C64.6808 16 65.0636 16.3066 65.3331 16.7051C65.6027 17.0996 65.7374 17.5684 65.7374 18.1113C65.7374 18.6113 65.6007 19.0762 65.3273 19.5059C65.0577 19.9355 64.6866 20.2812 64.214 20.543C63.7413 20.8008 63.2023 20.9277 62.5968 20.9238L61.173 20.9062V22.6113L62.0577 22.7988V24H58.2316ZM63.6339 24L62.4855 20.6719L64.2726 20.0625L65.3097 22.5996L66.1183 22.8047V24H63.6339ZM61.173 19.3301H62.4503C62.8488 19.3301 63.1554 19.2383 63.3702 19.0547C63.5851 18.8672 63.6925 18.5977 63.6925 18.2461C63.6925 17.8828 63.5831 17.5918 63.3644 17.373C63.1456 17.1504 62.8331 17.0391 62.4269 17.0391H61.173V19.3301Z" fill="black"/>
<path d="M33.5894 24L31.6206 16.7637L30.6538 16.6758V15.4688H34.5034V16.6758L33.5542 16.8105L34.4858 20.625L34.6206 21.1758H34.6558L34.7964 20.6191L36.4663 15.4688H37.8843L39.6421 20.8594L39.7651 21.2285H39.8003L39.8999 20.8594L40.896 16.8105L39.9175 16.6758V15.4688H43.6909V16.6758L42.7827 16.7637L40.7261 24H38.8921L37.4214 19.5879L37.2397 18.9785H37.2046L36.9761 19.623L35.4819 24H33.5894Z" fill="black"/>
<path d="M22.725 24V22.7988L23.6156 22.6113V17.0625H22.2972L22.2445 17.9824H20.6918V15.4688H28.6195V17.9824H27.0492L27.0023 17.0625H25.6722V22.6113L26.5629 22.7988V24H22.725Z" fill="black"/>
<path d="M11.2511 24V22.7988L12.1359 22.6113V16.8633L11.2511 16.6758V15.4688H18.0656V17.9297H16.5128L16.4659 17.0508H14.1925V18.8027H16.9171V20.3789H14.1925V22.4121H16.5773L16.6241 21.4922H18.1593V24H11.2511Z" fill="black"/>
<path d="M0 24V22.7988L0.878906 22.6113V16.8633L0 16.6758V15.4688H0.878906H2.9707L6.39258 20.9297H6.42773V16.8633L5.30859 16.6758V15.4688H8.25H9.13477V16.6758L8.25 16.8633V24H6.22266L2.73633 18.6562H2.70117V22.6113L3.82617 22.7988V24H0Z" fill="black"/>
<path d="M50.5972 14C50.1805 14 49.8102 14.1726 49.5753 14.4368C49.3405 14.701 49.2335 15.0354 49.2335 15.3636C49.2335 15.6919 49.3405 16.0263 49.5753 16.2905C49.718 16.4509 49.9201 16.5594 50.1426 16.6341V18.1841C49.9964 18.2332 49.8747 18.3066 49.76 18.3954L48.2294 17.4384C48.2463 17.3481 48.3244 17.2727 48.3244 17.1818C48.3244 16.8535 48.2175 16.5191 47.9826 16.255C47.7478 15.9908 47.3775 15.8182 46.9608 15.8182C46.5441 15.8182 46.1738 15.9908 45.939 16.255C45.7041 16.5191 45.5972 16.8535 45.5972 17.1818C45.5972 17.5101 45.7041 17.8445 45.939 18.1087C46.1738 18.3728 46.5441 18.5454 46.9608 18.5454C47.2907 18.5454 47.5705 18.4171 47.798 18.2409L49.3285 19.198C49.3116 19.2882 49.2335 19.3636 49.2335 19.4545C49.2335 19.5455 49.3116 19.6209 49.3285 19.7111L47.798 20.6681C47.5705 20.492 47.2907 20.3636 46.9608 20.3636C46.5441 20.3636 46.1738 20.5362 45.939 20.8004C45.7041 21.0646 45.5972 21.399 45.5972 21.7273C45.5972 22.0555 45.7041 22.3899 45.939 22.6541C46.1738 22.9183 46.5441 23.0909 46.9608 23.0909C47.3775 23.0909 47.7478 22.9183 47.9826 22.6541C48.2175 22.3899 48.3244 22.0555 48.3244 21.7273C48.3244 21.6363 48.2463 21.5609 48.2294 21.4707L49.76 20.5137C49.8747 20.6024 49.9964 20.6759 50.1426 20.725V22.275C49.9201 22.3497 49.718 22.4581 49.5753 22.6186C49.3405 22.8828 49.2335 23.2172 49.2335 23.5454C49.2335 23.8737 49.3405 24.2081 49.5753 24.4723C49.8102 24.7365 50.1805 24.9091 50.5972 24.9091C51.0138 24.9091 51.3842 24.7365 51.619 24.4723C51.8538 24.2081 51.9608 23.8737 51.9608 23.5454C51.9608 23.2172 51.8538 22.8828 51.619 22.6186C51.4764 22.4581 51.2743 22.3497 51.0517 22.275V20.725C51.1979 20.6759 51.3197 20.6024 51.4343 20.5137L52.9649 21.4707C52.948 21.5609 52.8699 21.6363 52.8699 21.7273C52.8699 22.0555 52.9769 22.3899 53.2117 22.6541C53.4465 22.9183 53.8169 23.0909 54.2335 23.0909C54.6502 23.0909 55.0206 22.9183 55.2554 22.6541C55.4902 22.3899 55.5972 22.0555 55.5972 21.7273C55.5972 21.399 55.4902 21.0646 55.2554 20.8004C55.0206 20.5362 54.6502 20.3636 54.2335 20.3636C53.9037 20.3636 53.6238 20.492 53.3964 20.6681L51.8658 19.7111C51.8827 19.6209 51.9608 19.5455 51.9608 19.4545C51.9608 19.3636 51.8827 19.2882 51.8658 19.198L53.3964 18.2409C53.6238 18.4171 53.9037 18.5454 54.2335 18.5454C54.6502 18.5454 55.0206 18.3728 55.2554 18.1087C55.4902 17.8445 55.5972 17.5101 55.5972 17.1818C55.5972 16.8535 55.4902 16.5191 55.2554 16.255C55.0206 15.9908 54.6502 15.8182 54.2335 15.8182C53.8169 15.8182 53.4465 15.9908 53.2117 16.255C52.9769 16.5191 52.8699 16.8535 52.8699 17.1818C52.8699 17.2727 52.948 17.3481 52.9649 17.4384L51.4343 18.3954C51.3197 18.3066 51.1979 18.2332 51.0517 18.1841V16.6341C51.2743 16.5594 51.4764 16.4509 51.619 16.2905C51.8538 16.0263 51.9608 15.6919 51.9608 15.3636C51.9608 15.0354 51.8538 14.701 51.619 14.4368C51.3842 14.1726 51.0138 14 50.5972 14ZM50.5972 14.9091C50.7866 14.9091 50.8708 14.9637 50.939 15.0405C51.0072 15.1172 51.0517 15.2374 51.0517 15.3636C51.0517 15.4899 51.0072 15.6101 50.939 15.6868C50.8708 15.7635 50.7866 15.8182 50.5972 15.8182C50.4078 15.8182 50.3236 15.7635 50.2554 15.6868C50.1872 15.6101 50.1426 15.4899 50.1426 15.3636C50.1426 15.2374 50.1872 15.1172 50.2554 15.0405C50.3236 14.9637 50.4078 14.9091 50.5972 14.9091ZM46.9608 16.7273C47.1502 16.7273 47.2344 16.7819 47.3026 16.8587C47.3708 16.9354 47.4154 17.0556 47.4154 17.1818C47.4154 17.3081 47.3708 17.4282 47.3026 17.505C47.2344 17.5817 47.1502 17.6364 46.9608 17.6364C46.7714 17.6364 46.6872 17.5817 46.619 17.505C46.5508 17.4282 46.5063 17.3081 46.5063 17.1818C46.5063 17.0556 46.5508 16.9354 46.619 16.8587C46.6872 16.7819 46.7714 16.7273 46.9608 16.7273ZM54.2335 16.7273C54.4229 16.7273 54.5071 16.7819 54.5753 16.8587C54.6435 16.9354 54.6881 17.0556 54.6881 17.1818C54.6881 17.3081 54.6435 17.4282 54.5753 17.505C54.5071 17.5817 54.4229 17.6364 54.2335 17.6364C54.0441 17.6364 53.9599 17.5817 53.8917 17.505C53.8235 17.4282 53.779 17.3081 53.779 17.1818C53.779 17.0556 53.8235 16.9354 53.8917 16.8587C53.9599 16.7819 54.0441 16.7273 54.2335 16.7273ZM50.5972 19C50.7866 19 50.8708 19.0546 50.939 19.1314C51.0072 19.2081 51.0517 19.3283 51.0517 19.4545C51.0517 19.5808 51.0072 19.701 50.939 19.7777C50.8708 19.8544 50.7866 19.9091 50.5972 19.9091C50.4078 19.9091 50.3236 19.8544 50.2554 19.7777C50.1872 19.701 50.1426 19.5808 50.1426 19.4545C50.1426 19.3283 50.1872 19.2081 50.2554 19.1314C50.3236 19.0546 50.4078 19 50.5972 19ZM46.9608 21.2727C47.1502 21.2727 47.2344 21.3274 47.3026 21.4041C47.3708 21.4808 47.4154 21.601 47.4154 21.7273C47.4154 21.8535 47.3708 21.9737 47.3026 22.0504C47.2344 22.1272 47.1502 22.1818 46.9608 22.1818C46.7714 22.1818 46.6872 22.1272 46.619 22.0504C46.5508 21.9737 46.5063 21.8535 46.5063 21.7273C46.5063 21.601 46.5508 21.4808 46.619 21.4041C46.6872 21.3274 46.7714 21.2727 46.9608 21.2727ZM54.2335 21.2727C54.4229 21.2727 54.5071 21.3274 54.5753 21.4041C54.6435 21.4808 54.6881 21.601 54.6881 21.7273C54.6881 21.8535 54.6435 21.9737 54.5753 22.0504C54.5071 22.1272 54.4229 22.1818 54.2335 22.1818C54.0441 22.1818 53.9599 22.1272 53.8917 22.0504C53.8235 21.9737 53.779 21.8535 53.779 21.7273C53.779 21.601 53.8235 21.4808 53.8917 21.4041C53.9599 21.3274 54.0441 21.2727 54.2335 21.2727ZM50.5972 23.0909C50.7866 23.0909 50.8708 23.1456 50.939 23.2223C51.0072 23.299 51.0517 23.4192 51.0517 23.5454C51.0517 23.6717 51.0072 23.7919 50.939 23.8686C50.8708 23.9453 50.7866 24 50.5972 24C50.4078 24 50.3236 23.9453 50.2554 23.8686C50.1872 23.7919 50.1426 23.6717 50.1426 23.5454C50.1426 23.4192 50.1872 23.299 50.2554 23.2223C50.3236 23.1456 50.4078 23.0909 50.5972 23.0909Z" fill="black"/>
<path d="M78.0574 9V7.79883L78.9363 7.61133V1.86328L78.0574 1.67578V0.46875H78.9363H81.0281L84.45 5.92969H84.4851V1.86328L83.366 1.67578V0.46875H86.3074H87.1921V1.67578L86.3074 1.86328V9H84.28L80.7937 3.65625H80.7585V7.61133L81.8835 7.79883V9H78.0574Z" fill="black"/>
<path d="M63.1067 9.12304C62.4114 9.12304 61.7942 9.05663 61.2551 8.92382C60.7161 8.79101 60.179 8.54101 59.6438 8.17382V5.95898H61.2317L61.4075 7.0957C61.5325 7.23632 61.7532 7.35546 62.0696 7.45312C62.386 7.54687 62.7317 7.59374 63.1067 7.59374C63.3684 7.59374 63.5872 7.56249 63.7629 7.49999C63.9387 7.43359 64.0715 7.33788 64.1614 7.21288C64.2512 7.08788 64.2961 6.93749 64.2961 6.76171C64.2961 6.59374 64.2532 6.44335 64.1672 6.31054C64.0852 6.17773 63.9485 6.05273 63.7571 5.93554C63.5657 5.81445 63.3079 5.6914 62.9836 5.5664C62.2532 5.33203 61.6536 5.09374 61.1848 4.85156C60.7161 4.60937 60.3665 4.32226 60.136 3.99023C59.9094 3.6582 59.7961 3.24609 59.7961 2.7539C59.7961 2.28124 59.9309 1.86914 60.2004 1.51757C60.47 1.1621 60.8411 0.882807 61.3137 0.679682C61.7864 0.476557 62.3274 0.369135 62.9368 0.357416C63.6321 0.341791 64.2473 0.412104 64.7825 0.568354C65.3176 0.720698 65.7903 0.953119 66.2004 1.26562V3.32226H64.677L64.4368 2.17968C64.304 2.11328 64.1145 2.05273 63.8684 1.99804C63.6223 1.94335 63.3606 1.91601 63.0833 1.91601C62.845 1.91601 62.6321 1.94726 62.4446 2.00976C62.261 2.07226 62.1145 2.16601 62.0051 2.29101C61.8997 2.41601 61.8469 2.57226 61.8469 2.75976C61.8469 2.9121 61.8918 3.04882 61.9817 3.16992C62.0715 3.2871 62.2297 3.40624 62.4563 3.52734C62.6829 3.64453 62.9993 3.78124 63.4055 3.93749C64.3743 4.22265 65.1086 4.58007 65.6086 5.00976C66.1126 5.43554 66.3645 6.01562 66.3645 6.74999C66.3645 7.2539 66.2278 7.68359 65.9543 8.03906C65.6809 8.39062 65.3001 8.66015 64.8118 8.84765C64.3235 9.03124 63.7551 9.12304 63.1067 9.12304Z" fill="black"/>
<path d="M48.6855 9V7.79883L49.2832 7.71094L51.8262 0.46875H54.0527L56.6016 7.71094L57.1992 7.79883V9H54.0117V7.79883L54.5684 7.69336L54.3105 6.76758H51.5684L51.3223 7.69336L51.8789 7.79883V9H48.6855ZM52.002 5.32617H53.8711L53.0391 2.74219L52.9453 2.44336H52.9102L52.8105 2.77148L52.002 5.32617Z" fill="black"/>
<path d="M35.4421 9V7.79883L36.321 7.61133V1.86328L35.4421 1.67578V0.46875H36.321H39.4675L41.53 6.08789H41.5652L43.5691 0.46875H47.5476V1.67578L46.6628 1.86328V7.61133L47.5476 7.79883V9H43.7273V7.79883L44.6472 7.61133V6.49805L44.6941 2.48438L44.6589 2.47852L42.2449 9H40.6277L38.1785 2.55469L38.1375 2.56055L38.2781 6.2168V7.61133L39.2683 7.79883V9H35.4421Z" fill="black"/>
<path d="M21.2953 9V7.79883L22.1801 7.61133V1.86328L21.2953 1.67578V0.46875H28.1097V2.92969H26.557L26.5101 2.05078H24.2367V3.80273H26.9613V5.37891H24.2367V7.41211H26.6215L26.6683 6.49219H28.2035V9H21.2953Z" fill="black"/>
<path d="M10.0383 9V7.79883L10.9231 7.61133V1.86328L10.0383 1.67578V0.46875H13.8645V1.67578L12.9797 1.86328V4.01953H16.0852V1.86328L15.2004 1.67578V0.46875H16.0852H18.136H19.0208V1.67578L18.136 1.86328V7.61133L19.0208 7.79883V9H15.2004V7.79883L16.0852 7.61133V5.5957H12.9797V7.61133L13.8645 7.79883V9H10.0383Z" fill="black"/>
<path d="M2.0332 9V7.79883L2.92383 7.61133V2.0625H1.60547L1.55273 2.98242H0V0.46875H7.92773V2.98242H6.35742L6.31055 2.0625H4.98047V7.61133L5.87109 7.79883V9H2.0332Z" fill="black"/>
<path opacity="0.3" d="M75.4735 4C75.4735 2.04444 73.8735 0.444445 71.918 0.444445C69.9624 0.444445 68.3624 2.04444 68.3624 4C68.3624 5.95556 69.9624 7.55556 71.918 7.55556C72.0513 7.55556 72.2291 7.55556 72.3624 7.51111V8.53333C73.2958 7.91111 75.0291 6.57778 75.3846 4.71111C75.4291 4.48889 75.4735 4.26667 75.4735 4Z" fill="black"/>
<path d="M71.918 9.37778V8C69.6957 8 67.918 6.22222 67.918 4C67.918 1.77778 69.6957 0 71.918 0C74.1402 0 75.918 1.77778 75.918 4C75.918 4.26667 75.8735 4.57778 75.8291 4.84444C75.4291 6.84444 73.6513 8.26667 72.5846 8.93333L71.918 9.37778ZM72.8069 7.02222V7.68889C73.6957 7.02222 74.6735 5.95556 74.9402 4.66667C74.9846 4.44444 75.0291 4.22222 75.0291 4C75.0291 2.26667 73.6513 0.888889 71.918 0.888889C70.1846 0.888889 68.8069 2.26667 68.8069 4C68.8069 5.73333 70.1846 7.11111 71.918 7.11111C72.0513 7.11111 72.1846 7.11111 72.318 7.06667L72.8069 7.02222Z" fill="black"/>
</svg>
